Coordinates
version=1
nRows=29
nColumns=24
inDegrees=yes

Units are S.I. units (second, meters, Newtons, ...)
Angles are in degrees.

endheader
time	pelvis_tilt	pelvis_list	pelvis_rotation	pelvis_tx	pelvis_ty	pelvis_tz	hip_flexion_r	hip_adduction_r	hip_rotation_r	knee_angle_r	ankle_angle_r	subtalar_angle_r	mtp_angle_r	hip_flexion_l	hip_adduction_l	hip_rotation_l	knee_angle_l	ankle_angle_l	subtalar_angle_l	mtp_angle_l	lumbar_extension	lumbar_bending	lumbar_rotation
      0.46300000	     -3.60223593	      2.01197245	      4.59393885	     -0.75884991	      0.88803819	      0.31611061	     33.76799882	     -0.95833496	     -3.25367722	    -19.28636932	      1.05087961	     -1.80922593	      0.59755733	    -14.16668745	      3.55263599	      3.30386991	     -3.83991903	     15.82342188	     -3.17987991	      1.05149615	     -6.85763762	     -3.36808385	     -9.98567094
      0.46716667	     -3.71145783	      2.08938803	      4.63436263	     -0.75319153	      0.88666136	      0.31639276	     33.89414821	     -0.93692744	     -2.85647672	    -19.44718242	      1.13136308	     -2.16104930	      0.74611117	    -14.11217203	      3.59426101	      3.42642827	     -4.54605503	     16.10151017	     -3.13100759	      1.24725998	     -6.73114660	     -3.42512244	     -9.88453925
      0.47133333	     -3.80082405	      2.12303117	      4.69140751	     -0.74746254	      0.88539513	      0.31667352	     33.95928848	     -0.88378898	     -2.54594967	    -19.61158524	      1.10057356	     -2.45720734	      3.20134050	    -13.97042592	      3.57126894	      3.23829076	     -5.46690767	     16.42578901	     -2.72820553	      4.94680043	     -6.58589695	     -3.43037933	     -9.83986295
      0.47550000	     -3.89917158	      2.15168501	      4.73971071	     -0.74172305	      0.88417246	      0.31699268	     34.03422202	     -0.80831675	     -2.19639390	    -19.85806248	      1.03075850	     -2.85985430	      3.17896953	    -13.85388438	      3.55527260	      3.30040799	     -6.32077287	     16.65482671	     -2.67563860	      5.00686811	     -6.45609586	     -3.43865035	     -9.73885801
      0.47966667	     -4.00390458	      2.17511664	      4.78231314	     -0.73595189	      0.88297469	      0.31734015	     34.12633641	     -0.72431179	     -1.88052347	    -20.20451253	      0.96313098	     -3.23036343	      3.16358878	    -13.68061633	      3.53002322	      3.24596812	     -7.27950396	     16.91484054	     -2.44831678	      5.11307232	     -6.30625288	     -3.43095690	     -9.63985821
      0.48383333	     -4.10503777	      2.19107677	      4.82215239	     -0.73015275	      0.88183794	      0.31770601	     34.21488088	     -0.62940488	     -1.58654444	    -20.62042474	      0.87685942	     -3.59584671	      3.15857484	    -13.47707047	      3.49655870	      3.18648842	     -8.30871603	     17.14827472	     -2.21810882	      5.24928199	     -6.15744739	     -3.41284317	     -9.53769304
      0.48800000	     -4.17020332	      2.17861314	      4.83963539	     -0.72430064	      0.88080355	      0.31814844	     34.25283967	     -0.48368973	     -1.28569783	    -21.07115164	      0.78595587	     -3.94918955	      3.16887127	    -13.26610754	      3.42198805	      2.98841291	     -9.43187319	     17.41419423	     -1.80795258	      5.57006895	     -6.05250292	     -3.36219871	     -9.42007533
      0.49216667	     -4.29157707	      2.19050450	      4.87829431	     -0.71845478	      0.87974938	      0.31853573	     34.37823756	     -0.38412327	     -1.05275980	    -21.63383316	      0.65428964	     -4.32638555	      3.18075462	    -12.99684360	      3.39089476	      2.99876449	    -10.54626852	     17.48015055	     -1.73939222	      5.77068205	     -5.86804758	     -3.33844642	     -9.29698057
      0.49633333	     -4.34788343	      2.15434109	      4.88774758	     -0.71255368	      0.87883502	      0.31903218	     34.41482900	     -0.20570377	     -0.79914122	    -22.19973351	      0.53821265	     -4.71231578	      3.23155941	    -12.72779807	      3.28425097	      2.76185719	    -11.80544439	     17.66982323	     -1.30131726	      6.34714609	     -5.76684344	     -3.25262008	     -9.13852178
      0.50050000	     -4.37686580	      2.01079389	      4.85647064	     -0.70655596	      0.87781152	      0.31952039	     34.43378231	      0.09595543	     -0.58304967	    -22.81865001	      0.45065243	     -5.10506190	      3.24540750	    -12.77678217	      3.10389785	      2.79509533	    -12.53578806	     17.60822735	     -1.46589871	      6.49922658	     -5.66145079	     -3.02741016	     -8.96902597
      0.50466667	     -4.47244822	      1.99603112	      4.85801697	     -0.70062051	      0.87699332	      0.32002984	     34.53128983	      0.24902241	     -0.38392857	    -23.49430041	      0.29259272	     -5.45726887	      3.28868939	    -12.41732066	      3.03097228	      2.63644953	    -13.87894789	     17.50776830	     -1.21983921	      6.94333438	     -5.49042205	     -2.98580804	     -8.74443916
      0.50883333	     -4.56020668	      1.98512080	      4.86056686	     -0.69469852	      0.87624039	      0.32052892	     34.63279902	      0.39664849	     -0.19920788	    -24.22705627	      0.21920032	     -5.79386229	      3.32395550	    -12.04219512	      2.97366050	      2.56926848	    -15.27346637	     17.40412096	     -1.14387624	      7.31321748	     -5.33748960	     -2.93177772	     -8.58005088
      0.51300000	     -4.58754607	      1.93335400	      4.84466432	     -0.68872963	      0.87564434	      0.32110171	     34.65162602	      0.60483638	     -0.00899058	    -24.94907430	      0.20754877	     -6.14275968	      3.74157138	    -11.68824525	      2.85311592	      2.39072491	    -16.73356483	     17.19393652	     -1.03198685	     12.41990039	     -5.26401671	     -2.82627892	     -8.43428114
      0.51716667	     -4.68236887	      1.90533624	      4.84150849	     -0.68280144	      0.87500732	      0.32161365	     34.76798983	      0.76666622	      0.14271299	    -25.74222647	      0.26849329	     -6.39882332	      3.74271064	    -11.22800071	      2.78384681	      2.33700076	    -18.26378564	     16.94514760	     -1.05562968	     12.46697768	     -5.09797683	     -2.74031710	     -8.23365238
      0.52133333	     -4.74474300	      1.86558888	      4.82003115	     -0.67687286	      0.87447463	      0.32218516	     34.84942934	      0.94775080	      0.27139718	    -26.54303844	      0.29937113	     -6.62973625	      3.74239611	    -10.74425447	      2.68242687	      2.14612610	    -19.89452098	     16.64495368	     -0.88973994	     12.61473370	     -4.97766633	     -2.66763938	     -8.00763573
      0.52550000	     -4.79238339	      1.80026953	      4.79673342	     -0.67093534	      0.87402304	      0.32276563	     34.90586195	      1.15528654	      0.38881830	    -27.34105619	      0.43647235	     -6.85533660	      3.74286427	    -10.23824595	      2.55219063	      1.95811670	    -21.58931975	     16.27072492	     -0.79414914	     12.82533796	     -4.86783694	     -2.54498352	     -7.79556426
      0.52966667	     -4.82805388	      1.71968452	      4.77013947	     -0.66500171	      0.87365712	      0.32334933	     34.94091601	      1.37460474	      0.48574798	    -28.13361851	      0.62874428	     -7.03838067	      3.74121937	     -9.70544850	      2.40032382	      1.74769395	    -23.34082433	     15.81750696	     -0.71243194	     13.09259298	     -4.76967677	     -2.40356641	     -7.58517919
      0.53383333	     -4.85063124	      1.61975513	      4.73962003	     -0.65907207	      0.87336186	      0.32394378	     34.95221472	      1.61021004	      0.55942315	    -28.91372065	      0.87289373	     -7.19493483	      3.73426781	     -9.14487481	      2.21973564	      1.51086822	    -25.15760856	     15.29764499	     -0.63107001	     13.45018447	     -4.68600485	     -2.23943087	     -7.36189879
      0.53800000	     -4.81980108	      1.46409586	      4.69816774	     -0.65312481	      0.87322019	      0.32458693	     34.86664566	      1.91782935	      0.64359788	    -29.61871690	      1.14624283	     -7.44946761	      3.42983476	     -8.60455447	      1.95687143	      1.20294478	    -27.01381303	     14.62814208	     -0.63036988	     18.77780654	     -4.66968689	     -1.98581697	     -7.17156615
      0.54216667	     -4.79782387	      1.33674830	      4.66236845	     -0.64720748	      0.87312765	      0.32515004	     34.79455825	      2.16743045	      0.66968903	    -30.34391526	      1.55271328	     -7.45117780	      3.44250931	     -8.03508086	      1.74396956	      0.98070174	    -28.89163429	     13.85494446	     -0.68942106	     18.81107226	     -4.64618378	     -1.75735877	     -6.99449073
      0.54633333	     -4.77699902	      1.19473872	      4.62447636	     -0.64133837	      0.87304213	      0.32575044	     34.71767610	      2.42715287	      0.66049268	    -31.04893757	      1.92596928	     -7.47844368	      3.44397181	     -7.40111153	      1.48839850	      0.66044118	    -30.87631495	     13.15669426	     -0.64899220	     18.91420889	     -4.61322866	     -1.55888756	     -6.75984401
      0.55050000	     -4.71759109	      1.00735840	      4.58172513	     -0.63545404	      0.87310870	      0.32635049	     34.54836274	      2.73925594	      0.66863754	    -31.65747812	      2.36706701	     -7.51768466	      3.44471476	     -6.79677778	      1.18263470	      0.37489730	    -32.85126362	     12.29962672	     -0.70943352	     19.00888390	     -4.63972636	     -1.25969073	     -6.57372544
      0.55466667	     -4.65604462	      0.80109747	      4.54136572	     -0.62960443	      0.87318955	      0.32696894	     34.36390554	      3.05582902	      0.61012645	    -32.23068118	      2.78491801	     -7.52630780	      3.43110457	     -6.13815307	      0.82272038	     -0.01019641	    -34.91114170	     11.46044193	     -0.68652609	     19.17759446	     -4.64514351	     -0.97279693	     -6.33624499
      0.55883333	     -4.55141802	      0.58085896	      4.49306817	     -0.62376105	      0.87342545	      0.32757082	     34.08966642	      3.39486854	      0.58290119	    -32.72419501	      3.28072289	     -7.54642360	      3.42755852	     -5.53266981	      0.45816722	     -0.32454109	    -36.91967434	     10.47667121	     -0.81679810	     19.27345901	     -4.72718642	     -0.64095050	     -6.17415335
      0.56300000	     -4.45677609	      0.32124919	      4.44880663	     -0.61795125	      0.87366107	      0.32819135	     33.80020363	      3.75615423	      0.48479873	    -33.14499689	      3.71204776	     -7.50894545	      3.40207312	     -4.86110788	      0.01033572	     -0.73941920	    -39.00998060	      9.56454135	     -0.83857885	     19.45213115	     -4.77377839	     -0.27859843	     -5.92747699
      0.56716667	     -4.33720801	      0.05880356	      4.39830717	     -0.61215367	      0.87401281	      0.32881638	     33.44466286	      4.12682855	      0.40724904	    -33.49229853	      4.18886098	     -7.48613743	      3.37792118	     -4.21043246	     -0.44273493	     -1.12351223	    -41.06231388	      8.52444305	     -0.96729564	     19.59625249	     -4.86725669	      0.09066055	     -5.72867417
      0.57133333	     -4.19450244	     -0.23135035	      4.35003050	     -0.60639507	      0.87443103	      0.32947477	     33.03188142	      4.53011904	      0.32699421	    -33.76614004	      4.67346368	     -7.51851515	      3.29609060	     -3.56202865	     -0.95063271	     -1.52125221	    -43.12367180	      7.52402764	     -1.02305391	     19.88895200	     -4.99543168	      0.50381393	     -5.45694776
      0.57550000	     -4.07110522	     -0.48797571	      4.29576632	     -0.60067571	      0.87489910	      0.33009882	     32.61430849	      4.88674563	      0.23434688	    -33.98729563	      5.16547398	     -7.42742537	      3.28772575	     -2.88705211	     -1.41194675	     -1.89085702	    -45.13976007	      6.39403378	     -1.29922915	     19.92864792	     -5.09297007	      0.85738919	     -5.32679365
      0.57966667	     -3.93956954	     -0.77050968	      4.24913058	     -0.59498740	      0.87542449	      0.33072705	     32.15440034	      5.26399864	      0.12218337	    -34.13319275	      5.64076219	     -7.33519188	      3.27822132	     -2.19744055	     -1.92097605	     -2.26233981	    -47.15543089	      5.31679219	     -1.54208060	     19.94248362	     -5.20760091	      1.24320238	     -5.14943542
